<svg width="25" height="24" viewBox="0 0 25 24" fill="none" xmlns="http://www.w3.org/2000/svg">
<g id="Frame 852">
<path id="Vector" d="M21.711 16.8068C21.4342 17.4521 21.0923 18.0674 20.6905 18.6431C20.1537 19.4099 19.7129 19.9397 19.375 20.2346C18.8503 20.7164 18.2865 20.9643 17.6838 20.9783C17.252 20.9783 16.7302 20.8554 16.1225 20.6055C15.5127 20.3565 14.953 20.2346 14.4402 20.2346C13.9034 20.2346 13.3277 20.3565 12.711 20.6055C12.0952 20.8554 11.5974 20.9863 11.2166 20.9983C10.6399 21.0233 10.0631 20.7694 9.48837 20.2346C9.12153 19.9147 8.66273 19.3649 8.11197 18.5872C7.52223 17.7585 7.03744 16.7938 6.65761 15.6972C6.25079 14.5106 6.04688 13.363 6.04688 12.2514C6.04688 10.9788 6.32175 9.88023 6.87251 8.96055C7.28908 8.23827 7.88462 7.63545 8.60176 7.21017C9.30892 6.78599 10.1162 6.55759 10.9407 6.5484C11.4005 6.5484 12.0033 6.69035 12.7499 6.97025C13.4966 7.25015 13.9764 7.3921 14.1853 7.3921C14.3432 7.3921 14.874 7.22516 15.7776 6.89428C16.6302 6.58739 17.3499 6.46043 17.9397 6.51041C19.539 6.63937 20.7394 7.26915 21.5381 8.40475C20.1087 9.27144 19.402 10.484 19.416 12.0405C19.428 13.253 19.8688 14.2617 20.7325 15.0624C21.1143 15.4278 21.5597 15.7202 22.0469 15.9251C21.9409 16.232 21.829 16.5249 21.711 16.8068ZM18.0456 2.38087C18.0456 3.33053 17.6978 4.21822 17.0071 5.03893C16.1714 6.01459 15.1619 6.57939 14.0674 6.49042C14.0531 6.371 14.046 6.25082 14.0464 6.13055C14.0464 5.21787 14.4422 4.24221 15.1489 3.44349C15.5007 3.03963 15.9485 2.70275 16.4913 2.43485C17.0331 2.17094 17.5448 2.02499 18.0266 2C18.0396 2.12796 18.0456 2.25491 18.0456 2.38087Z" fill="white"/>
</g>
</svg>
