<svg width="40" height="40" viewBox="0 0 40 40" fill="none" xmlns="http://www.w3.org/2000/svg">
<path fill-rule="evenodd" clip-rule="evenodd" d="M3.3335 20.0002C3.3335 19.0797 4.07969 18.3335 5.00016 18.3335H35.0002C35.9206 18.3335 36.6668 19.0797 36.6668 20.0002C36.6668 20.9206 35.9206 21.6668 35.0002 21.6668H5.00016C4.07969 21.6668 3.3335 20.9206 3.3335 20.0002Z" fill="#F8F3ED"/>
<path fill-rule="evenodd" clip-rule="evenodd" d="M3.3335 10.0002C3.3335 9.07969 4.07969 8.3335 5.00016 8.3335H35.0002C35.9206 8.3335 36.6668 9.07969 36.6668 10.0002C36.6668 10.9206 35.9206 11.6668 35.0002 11.6668H5.00016C4.07969 11.6668 3.3335 10.9206 3.3335 10.0002Z" fill="#F8F3ED"/>
<path fill-rule="evenodd" clip-rule="evenodd" d="M3.3335 30.0002C3.3335 29.0797 4.07969 28.3335 5.00016 28.3335H35.0002C35.9206 28.3335 36.6668 29.0797 36.6668 30.0002C36.6668 30.9206 35.9206 31.6668 35.0002 31.6668H5.00016C4.07969 31.6668 3.3335 30.9206 3.3335 30.0002Z" fill="#F8F3ED"/>
</svg>
