<svg width="30" height="31" viewBox="0 0 30 31" fill="none" xmlns="http://www.w3.org/2000/svg">
<path d="M29.5 15.463C29.5 23.7412 22.9939 30.4259 15 30.4259C7.00609 30.4259 0.5 23.7412 0.5 15.463C0.5 7.18471 7.00609 0.5 15 0.5C22.9939 0.5 29.5 7.18471 29.5 15.463Z" fill="#2C2E2E" stroke="#C1C1C1"/>
<path fill-rule="evenodd" clip-rule="evenodd" d="M23.4593 11.0533C23.8174 11.4112 23.8174 11.9916 23.4593 12.3496L13.4009 22.4081C13.0452 22.7637 12.4693 22.7663 12.1104 22.4138L6.44036 16.845C6.07918 16.4903 6.07395 15.9099 6.42869 15.5487L7.071 14.8947C7.42574 14.5335 8.00612 14.5283 8.36732 14.8831L12.7411 19.1787L21.5148 10.4051C21.8728 10.0471 22.4532 10.0471 22.8111 10.4051L23.4593 11.0533Z" fill="white"/>
</svg>
