<svg width="30" height="30" viewBox="0 0 30 30" fill="none" xmlns="http://www.w3.org/2000/svg">
<circle cx="15" cy="15" r="14.5" fill="#2C2E2E" stroke="#C1C1C1"/>
<path fill-rule="evenodd" clip-rule="evenodd" d="M17.3117 9.81187C18.1071 9.01649 19.3926 9.01649 20.188 9.81187C20.9834 10.6073 20.9834 11.8928 20.188 12.6882L10.9797 21.8965C10.1843 22.6919 8.89876 22.6919 8.10337 21.8965C7.30799 21.1011 7.30799 19.8156 8.10337 19.0202L16.2562 10.8674L17.3117 9.81187ZM16.6319 11.9942L8.85467 19.7715C8.47422 20.152 8.47422 20.7648 8.85467 21.1452C9.23512 21.5257 9.84792 21.5257 10.2284 21.1452L18.0056 13.3679L16.6319 11.9942ZM18.7569 12.6166L17.3832 11.2429L18.063 10.5632C18.4435 10.1827 19.0563 10.1827 19.4367 10.5632C19.8172 10.9436 19.8172 11.5564 19.4367 11.9369L18.7569 12.6166Z" fill="white"/>
<path fill-rule="evenodd" clip-rule="evenodd" d="M10.7076 8.16624C10.7992 8.07466 10.9334 8.04037 11.0577 8.07683L12.0205 8.35925L12.9833 8.07683C13.1076 8.04037 13.2419 8.07466 13.3335 8.16624C13.425 8.25782 13.4593 8.39209 13.4229 8.51636L13.1404 9.47918L13.4229 10.442C13.4593 10.5663 13.425 10.7005 13.3335 10.7921C13.2419 10.8837 13.1076 10.918 12.9833 10.8815L12.0205 10.5991L11.0577 10.8815C10.9334 10.918 10.7992 10.8837 10.7076 10.7921C10.616 10.7005 10.5817 10.5663 10.6182 10.442L10.9006 9.47918L10.6182 8.51636C10.5817 8.39209 10.616 8.25782 10.7076 8.16624ZM11.4803 8.93897L11.6095 9.37949C11.6286 9.44457 11.6286 9.51378 11.6095 9.57886L11.4803 10.0194L11.9208 9.89016C11.9859 9.87107 12.0551 9.87107 12.1202 9.89016L12.5607 10.0194L12.4315 9.57886C12.4124 9.51378 12.4124 9.44457 12.4315 9.37949L12.5607 8.93897L12.1202 9.06819C12.0551 9.08728 11.9859 9.08728 11.9208 9.06819L11.4803 8.93897ZM7.87425 12.4162C7.96583 12.3247 8.10009 12.2904 8.22437 12.3268L9.18718 12.6093L10.15 12.3268C10.2743 12.2904 10.4085 12.3247 10.5001 12.4162C10.5917 12.5078 10.626 12.6421 10.5895 12.7664L10.3071 13.7292L10.5895 14.692C10.626 14.8163 10.5917 14.9505 10.5001 15.0421C10.4085 15.1337 10.2743 15.168 10.15 15.1315L9.18718 14.8491L8.22437 15.1315C8.10009 15.168 7.96583 15.1337 7.87425 15.0421C7.78267 14.9505 7.74838 14.8163 7.78484 14.692L8.06726 13.7292L7.78484 12.7664C7.74838 12.6421 7.78267 12.5078 7.87425 12.4162ZM8.64698 13.189L8.7762 13.6295C8.79529 13.6946 8.79529 13.7638 8.7762 13.8289L8.64698 14.2694L9.08749 14.1402C9.15258 14.1211 9.22178 14.1211 9.28687 14.1402L9.72739 14.2694L9.59817 13.8289C9.57908 13.7638 9.57908 13.6946 9.59817 13.6295L9.72739 13.189L9.28687 13.3182C9.22178 13.3373 9.15258 13.3373 9.08749 13.3182L8.64698 13.189ZM18.4993 15.9579C18.5908 15.8663 18.7251 15.832 18.8494 15.8685L19.8122 16.1509L20.775 15.8685C20.8993 15.832 21.0335 15.8663 21.1251 15.9579C21.2167 16.0495 21.251 16.1838 21.2145 16.308L20.9321 17.2708L21.2145 18.2337C21.251 18.3579 21.2167 18.4922 21.1251 18.5838C21.0335 18.6754 20.8993 18.7096 20.775 18.6732L19.8122 18.3908L18.8494 18.6732C18.7251 18.7096 18.5908 18.6754 18.4993 18.5838C18.4077 18.4922 18.3734 18.3579 18.4098 18.2337L18.6923 17.2708L18.4098 16.308C18.3734 16.1838 18.4077 16.0495 18.4993 15.9579ZM19.272 16.7306L19.4012 17.1712C19.4203 17.2362 19.4203 17.3054 19.4012 17.3705L19.272 17.811L19.7125 17.6818C19.7776 17.6627 19.8468 17.6627 19.9119 17.6818L20.3524 17.811L20.2232 17.3705C20.2041 17.3054 20.2041 17.2362 20.2232 17.1712L20.3524 16.7306L19.9119 16.8599C19.8468 16.8789 19.7776 16.8789 19.7125 16.8599L19.272 16.7306Z" fill="white"/>
</svg>
