<svg width="25" height="24" viewBox="0 0 25 24" fill="none" xmlns="http://www.w3.org/2000/svg">
<g id="eye-off" clip-path="url(#clip0_19_30)">
<path id="Vector" d="M18.6439 17.94C16.9379 19.243 14.8605 19.9649 12.7157 20C5.72951 20 1.73743 12 1.73743 12C2.97885 9.68192 4.70069 7.65663 6.78741 6.06003M10.6198 4.24002C11.3068 4.0789 12.0101 3.99836 12.7157 4.00003C19.7018 4.00003 23.6939 12 23.6939 12C23.0881 13.1356 22.3656 14.2048 21.5382 15.19M14.8315 14.12C14.5574 14.4148 14.2268 14.6512 13.8595 14.8151C13.4923 14.9791 13.0958 15.0673 12.6938 15.0744C12.2918 15.0815 11.8925 15.0074 11.5196 14.8565C11.1468 14.7056 10.8082 14.4811 10.5238 14.1962C10.2395 13.9113 10.0154 13.572 9.86482 13.1984C9.71423 12.8249 9.64028 12.4247 9.64737 12.0219C9.65447 11.6191 9.74246 11.2219 9.9061 10.8539C10.0697 10.4859 10.3057 10.1547 10.5999 9.88003" stroke="#767575" stroke-width="2" stroke-linecap="round" stroke-linejoin="round"/>
<path id="Vector_2" d="M1.73743 1L23.6939 23" stroke="#767575" stroke-width="2" stroke-linecap="round" stroke-linejoin="round"/>
</g>
<defs>
<clipPath id="clip0_19_30">
<rect width="23.9525" height="24" fill="white" transform="translate(0.73938)"/>
</clipPath>
</defs>
</svg>
