<?xml version="1.0" encoding="UTF-8"?><svg id="Layer_1" xmlns="http://www.w3.org/2000/svg" viewBox="0 0 391.13 384.13"><defs><style>.cls-1{fill:#fff;fill-rule:evenodd;}.cls-1,.cls-2{stroke-width:0px;}</style></defs><rect class="cls-2" width="391.13" height="384.13"/><path class="cls-1" d="m125.38,104.25c-5.53,0-10.02,4.49-10.02,10.02s4.49,10.02,10.02,10.02,10.02-4.49,10.02-10.02-4.49-10.02-10.02-10.02m0-7.52c9.69,0,17.54,7.86,17.54,17.54,0,9.02-10.53,19.47-16.05,26.6-.35.43-.88.7-1.48.7s-1.14-.27-1.48-.7c-5.52-7.12-16.05-17.57-16.05-26.6,0-9.68,7.85-17.54,17.54-17.54Z"/><path class="cls-1" d="m349.58,162.26c-129.23,129.23-166.72-34.9-307.58,51.7,116.31-131.81,155.08,28.43,307.58-51.7"/></svg>