<svg width="35" height="35" viewBox="0 0 35 35" fill="none" xmlns="http://www.w3.org/2000/svg">
<circle cx="17.5" cy="17.5" r="17.5" fill="#7E7B79"/>
<path d="M26.8224 22.2767L23.808 15.2368C22.7872 12.8485 20.9092 12.7522 19.6476 15.025L17.8275 18.309C16.9029 19.975 15.1791 20.1195 13.9849 18.6268L13.773 18.3571C12.5307 16.797 10.7779 16.9896 9.88231 18.7712L8.22586 22.0937C7.06057 24.4051 8.74591 27.1305 11.3269 27.1305H23.6154C26.1193 27.1305 27.8047 24.5784 26.8224 22.2767ZM12.6559 13.6478C13.4221 13.6478 14.157 13.3434 14.6988 12.8016C15.2407 12.2598 15.545 11.5249 15.545 10.7586C15.545 9.99239 15.2407 9.25753 14.6988 8.7157C14.157 8.17388 13.4221 7.86949 12.6559 7.86949C11.8896 7.86949 11.1548 8.17388 10.613 8.7157C10.0711 9.25753 9.76674 9.99239 9.76674 10.7586C9.76674 11.5249 10.0711 12.2598 10.613 12.8016C11.1548 13.3434 11.8896 13.6478 12.6559 13.6478Z" stroke="white" stroke-width="1.5" stroke-linecap="round" stroke-linejoin="round"/>
</svg>
