<svg width="35" height="35" viewBox="0 0 35 35" fill="none" xmlns="http://www.w3.org/2000/svg">
<circle cx="17.5" cy="17.5" r="17.5" fill="#7E7B79"/>
<path d="M26.6392 17.5C26.9474 16.5177 27.1304 15.4583 27.1304 14.3123C27.1304 11.3365 24.7324 8.92885 21.7758 8.92885C20.0231 8.92885 18.4726 9.77633 17.4999 11.0861C17.0051 10.4176 16.3606 9.8743 15.6181 9.49969C14.8756 9.12508 14.0556 8.92958 13.2239 8.92885C10.2674 8.92885 7.86938 11.3365 7.86938 14.3123C7.86938 21.0537 14.11 25.031 16.9028 25.9941C17.0665 26.0519 17.2784 26.0808 17.4999 26.0808" stroke="white" stroke-width="1.5" stroke-linecap="round" stroke-linejoin="round"/>
<path d="M26.6874 26.7453L25.7243 25.7822M23.0278 26.1674C23.8451 26.1674 24.629 25.8428 25.2069 25.2648C25.7849 24.6869 26.1096 23.903 26.1096 23.0857C26.1096 22.2683 25.7849 21.4845 25.2069 20.9065C24.629 20.3286 23.8451 20.0039 23.0278 20.0039C22.2105 20.0039 21.4266 20.3286 20.8487 20.9065C20.2707 21.4845 19.946 22.2683 19.946 23.0857C19.946 23.903 20.2707 24.6869 20.8487 25.2648C21.4266 25.8428 22.2105 26.1674 23.0278 26.1674Z" stroke="white" stroke-width="1.5" stroke-linecap="round" stroke-linejoin="round"/>
</svg>
