<svg width="35" height="35" viewBox="0 0 35 35" fill="none" xmlns="http://www.w3.org/2000/svg">
<circle cx="17.5" cy="17.5" r="17.5" fill="#7E7B79"/>
<path d="M15.0923 19.1853C15.0923 20.1195 15.8146 20.8707 16.7006 20.8707H18.5111C19.2816 20.8707 19.9075 20.2158 19.9075 19.3972C19.9075 18.5208 19.5223 18.203 18.9541 18.0008L16.0553 16.9896C15.4871 16.7873 15.1019 16.4792 15.1019 15.5931C15.1019 14.7842 15.7279 14.1197 16.4983 14.1197H18.3089C19.1949 14.1197 19.9172 14.8709 19.9172 15.805M17.4999 13.1663V21.8337" stroke="white" stroke-width="1.5" stroke-linecap="round" stroke-linejoin="round"/>
<path d="M27.1304 17.5C27.1304 22.816 22.8159 27.1305 17.4999 27.1305C12.1838 27.1305 7.86938 22.816 7.86938 17.5C7.86938 12.184 12.1838 7.86949 17.4999 7.86949" stroke="white" stroke-width="1.5" stroke-linecap="round" stroke-linejoin="round"/>
<path d="M22.3152 8.83254V12.6847M22.3152 12.6847H26.1674M22.3152 12.6847L27.1304 7.86949" stroke="white" stroke-width="1.5" stroke-linecap="round" stroke-linejoin="round"/>
</svg>
