<svg width="47" height="48" viewBox="0 0 47 48" fill="none" xmlns="http://www.w3.org/2000/svg">
<path fill-rule="evenodd" clip-rule="evenodd" d="M26.4601 9.96334C28.2434 10.5687 29.4632 12.5222 29.0669 14.4029L28.3439 19.0299C28.3163 19.2325 28.3758 19.3441 28.4284 19.4037C28.4894 19.4729 28.5892 19.5258 28.7203 19.5258H34.5536C35.9433 19.5258 37.1679 20.0894 37.9133 21.101C38.6612 22.116 38.8258 23.4467 38.3594 24.7652L34.875 35.3637C34.5748 36.5161 33.82 37.4693 32.9208 38.1273C32.0117 38.7925 30.8783 39.2133 29.7411 39.2133H24.1994C23.6563 39.2133 23.0084 39.1251 22.4042 38.9525C21.8489 38.7938 21.1937 38.5257 20.712 38.073L16.2382 34.6094L17.5773 32.8797L22.153 36.4222L22.202 36.4712C22.2992 36.5684 22.5617 36.7225 23.0051 36.8492C23.4217 36.9682 23.8676 37.0258 24.1994 37.0258H29.7411C30.3539 37.0258 31.0434 36.7904 31.6291 36.3619C32.2139 35.9339 32.6186 35.3708 32.7633 34.7918L32.773 34.7532L36.2897 24.0565L36.2944 24.0434C36.551 23.3248 36.4225 22.7654 36.1522 22.3986C35.8768 22.0248 35.3514 21.7133 34.5536 21.7133H28.7203C27.1987 21.7133 25.9365 20.4134 26.1792 18.7149L26.1812 18.7007L26.9158 13.9996L26.9234 13.9656C27.0848 13.2394 26.569 12.3054 25.7494 12.0322L25.7302 12.0258L25.7112 12.0187C25.4152 11.9077 25.0262 11.9102 24.6279 12.0472C24.2222 12.1866 23.9295 12.4233 23.797 12.6221L23.7947 12.6255L17.8155 21.5214L16 20.3011L21.9769 11.4087C21.9773 11.4081 21.9777 11.4074 21.9782 11.4068C22.429 10.7316 23.1565 10.2398 23.9168 9.97846C24.6795 9.71628 25.5951 9.64501 26.4601 9.96334Z" fill="#FFFFFF"/>
<path fill-rule="evenodd" clip-rule="evenodd" d="M10.9053 18.1056C10.7613 18.2384 10.5645 18.5553 10.5645 19.4529V33.7446C10.5645 34.6422 10.7613 34.959 10.9053 35.0919C11.0707 35.2446 11.4504 35.4217 12.3874 35.4217H13.8457C14.7827 35.4217 15.1623 35.2446 15.3278 35.0919C15.4718 34.959 15.6686 34.6422 15.6686 33.7446V19.4529C15.6686 18.5553 15.4718 18.2384 15.3278 18.1056C15.1623 17.9528 14.7827 17.7758 13.8457 17.7758H12.3874C11.4504 17.7758 11.0707 17.9528 10.9053 18.1056ZM9.42154 16.4982C10.204 15.7759 11.2827 15.5883 12.3874 15.5883H13.8457C14.9504 15.5883 16.0291 15.7759 16.8115 16.4982C17.6155 17.2403 17.8561 18.3088 17.8561 19.4529V33.7446C17.8561 34.8886 17.6155 35.9572 16.8115 36.6993C16.0291 37.4216 14.9504 37.6092 13.8457 37.6092H12.3874C11.2827 37.6092 10.204 37.4216 9.42154 36.6993C8.61759 35.9572 8.37695 34.8886 8.37695 33.7446V19.4529C8.37695 18.3088 8.61759 17.2403 9.42154 16.4982Z" fill="#FFFFFF"/>
<circle cx="23.5" cy="24.4841" r="23" stroke="#FFFFFF"/>
</svg>
