<svg width="47" height="48" viewBox="0 0 47 48" fill="none" xmlns="http://www.w3.org/2000/svg">
<path fill-rule="evenodd" clip-rule="evenodd" d="M15.9014 16.8279C15.548 16.8279 15.2324 16.8416 14.9433 16.8778C14.9292 16.8795 14.915 16.881 14.9009 16.8822C13.1383 17.0329 11.9693 17.6113 11.2241 18.4879C10.4669 19.3785 10.0098 20.738 10.0098 22.7195V28.5529C10.0098 31.3755 10.584 32.711 11.3836 33.4092C12.22 34.1396 13.5933 34.4445 15.9014 34.4445H16.4848C16.5089 34.4445 16.5329 34.4453 16.557 34.4469C16.8809 34.4684 17.1972 34.5542 17.4876 34.6993C17.7779 34.8445 18.0364 35.0461 18.2479 35.2924C18.2636 35.3107 18.2786 35.3294 18.2931 35.3487L20.0446 37.684C20.2575 37.9693 20.458 38.0211 20.5681 38.0211C20.6781 38.0211 20.8787 37.9693 21.0916 37.684L21.0931 37.682L22.8431 35.3487C23.2684 34.7816 23.9426 34.4445 24.6514 34.4445H25.2348C27.2181 34.4445 28.5773 33.9903 29.4672 33.2351C30.3425 32.4923 30.9212 31.3243 31.072 29.5538C31.0733 29.5395 31.0748 29.5252 31.0765 29.511C31.1127 29.2219 31.1264 28.9063 31.1264 28.5529V22.7195C31.1264 20.563 30.5864 19.1435 29.6986 18.2557C28.8108 17.3679 27.3913 16.8279 25.2348 16.8279H15.9014ZM14.6936 14.7045C15.0975 14.6553 15.5036 14.6404 15.9014 14.6404H25.2348C27.7303 14.6404 29.8035 15.267 31.2454 16.7089C32.6873 18.1508 33.3139 20.224 33.3139 22.7195V28.5529C33.3139 28.9507 33.2991 29.3568 33.2498 29.7606C33.0622 31.918 32.314 33.6883 30.8825 34.903C29.461 36.1093 27.5243 36.632 25.2348 36.632H24.6514C24.6439 36.632 24.6323 36.634 24.6192 36.6405C24.6062 36.6471 24.5976 36.6552 24.5931 36.6612L22.8446 38.9926C22.8443 38.993 22.844 38.9934 22.8437 38.9938C22.2837 39.7432 21.4711 40.2086 20.5681 40.2086C19.665 40.2086 18.8523 39.7431 18.2923 38.9935C18.2921 38.9932 18.2926 38.9938 18.2923 38.9935L16.5734 36.7016C16.5545 36.6831 16.5329 36.6677 16.5093 36.6559C16.4857 36.6441 16.4604 36.636 16.4343 36.632H15.9014C13.5574 36.632 11.4381 36.3609 9.94478 35.0569C8.41473 33.7208 7.82227 31.5636 7.82227 28.5529V22.7195C7.82227 20.4282 8.34954 18.4918 9.55745 17.071C10.7734 15.6408 12.5426 14.8923 14.6936 14.7045Z" fill="#FFFFFF"/>
<path fill-rule="evenodd" clip-rule="evenodd" d="M16.0974 14.6404H25.2357C27.7312 14.6404 29.8044 15.2671 31.2463 16.7089C32.6882 18.1508 33.3148 20.2241 33.3148 22.7196V28.3585C34.4066 28.0904 35.1938 27.6056 35.7469 26.956C36.5032 26.0679 36.9607 24.7093 36.9607 22.7196V16.8862C36.9607 14.7297 36.4207 13.3102 35.5329 12.4224C34.645 11.5346 33.2256 10.9946 31.069 10.9946H21.7357C19.7541 10.9946 18.3947 11.4517 17.504 12.2089C16.8529 12.7624 16.3664 13.5497 16.0974 14.6404ZM16.0871 10.5423C17.5079 9.33434 19.4443 8.80707 21.7357 8.80707H31.069C33.5645 8.80707 35.6378 9.43372 37.0797 10.8756C38.5215 12.3175 39.1482 14.3907 39.1482 16.8862V22.7196C39.1482 25.0174 38.6213 26.9546 37.4124 28.3742C36.1918 29.8078 34.4145 30.5519 32.2559 30.7364C31.9271 30.7645 31.6032 30.6427 31.3744 30.4048C31.1456 30.1669 31.0365 29.8385 31.0775 29.511C31.1136 29.222 31.1273 28.9063 31.1273 28.5529V22.7196C31.1273 20.563 30.5873 19.1435 29.6995 18.2557C28.8117 17.3679 27.3923 16.8279 25.2357 16.8279H15.9023C15.5489 16.8279 15.2333 16.8417 14.9443 16.8778C14.6168 16.9187 14.2883 16.8096 14.0505 16.5808C13.8126 16.3521 13.6907 16.0281 13.7188 15.6993C13.9035 13.5389 14.6523 11.7621 16.0871 10.5423Z" fill="#FFFFFF"/>
<path fill-rule="evenodd" clip-rule="evenodd" d="M14.0137 26.307C14.0137 25.5016 14.6666 24.8487 15.472 24.8487H15.4866C16.292 24.8487 16.9449 25.5016 16.9449 26.307C16.9449 27.1124 16.292 27.7654 15.4866 27.7654H15.472C14.6666 27.7654 14.0137 27.1124 14.0137 26.307ZM19.1178 26.307C19.1178 25.5016 19.7708 24.8487 20.5762 24.8487H20.5908C21.3962 24.8487 22.0491 25.5016 22.0491 26.307C22.0491 27.1124 21.3962 27.7654 20.5908 27.7654H20.5762C19.7708 27.7654 19.1178 27.1124 19.1178 26.307ZM24.222 26.307C24.222 25.5016 24.8749 24.8487 25.6803 24.8487H25.6949C26.5003 24.8487 27.1533 25.5016 27.1533 26.307C27.1533 27.1124 26.5003 27.7654 25.6949 27.7654H25.6803C24.8749 27.7654 24.222 27.1124 24.222 26.307Z" fill="#FFFFFF"/>
<circle cx="23.5" cy="24.4841" r="23" stroke="#FFFFFF"/>
</svg>
