<svg xmlns="http://www.w3.org/2000/svg" xmlns:xlink="http://www.w3.org/1999/xlink" width="1024" zoomAndPan="magnify" viewBox="0 0 768 767.999994" height="1024" preserveAspectRatio="xMidYMid meet" version="1.0"><defs><g/><clipPath id="668653c6c3"><path d="M 61.296875 61.296875 L 706.703125 61.296875 L 706.703125 706.703125 L 61.296875 706.703125 Z M 61.296875 61.296875 " clip-rule="nonzero"/></clipPath><clipPath id="b622814892"><path d="M 384 61.296875 C 205.777344 61.296875 61.296875 205.777344 61.296875 384 C 61.296875 562.222656 205.777344 706.703125 384 706.703125 C 562.222656 706.703125 706.703125 562.222656 706.703125 384 C 706.703125 205.777344 562.222656 61.296875 384 61.296875 Z M 384 61.296875 " clip-rule="nonzero"/></clipPath></defs><rect x="-76.8" width="921.6" fill="#ffffff" y="-76.799999" height="921.599993" fill-opacity="1"/><rect x="-76.8" width="921.6" fill="#ffffff" y="-76.799999" height="921.599993" fill-opacity="1"/><g clip-path="url(#668653c6c3)"><g clip-path="url(#b622814892)"><path fill="#c8c1bc" d="M 61.296875 61.296875 L 706.703125 61.296875 L 706.703125 706.703125 L 61.296875 706.703125 Z M 61.296875 61.296875 " fill-opacity="1" fill-rule="nonzero"/></g></g><g fill="#ffffff" fill-opacity="1"><g transform="translate(220.414736, 499.510592)"><g><path d="M 90.84375 -247.554688 C 90.84375 -254.429688 88.308594 -257.324219 82.878906 -256.960938 C 77.449219 -256.601562 53.925781 -248.640625 38 -242.125 C 21.714844 -235.609375 19.542969 -233.800781 19.542969 -229.457031 C 19.542969 -225.476562 21.714844 -222.582031 31.125 -220.046875 C 46.6875 -215.34375 48.496094 -208.828125 48.496094 -193.988281 L 48.496094 -43.429688 C 48.496094 -18.457031 24.25 -19.542969 24.25 -7.601562 C 24.25 -2.171875 28.589844 0 40.535156 0 L 91.925781 0 C 103.148438 0 107.851562 -1.808594 107.851562 -7.238281 C 107.851562 -18.097656 90.84375 -18.097656 90.84375 -43.429688 Z M 90.84375 -247.554688 "/></g></g></g><g fill="#ffffff" fill-opacity="1"><g transform="translate(346.000592, 499.510592)"><g><path d="M 170.101562 0 C 186.027344 0 190.007812 -5.789062 194.351562 -18.097656 C 197.609375 -28.589844 200.140625 -37.640625 200.867188 -48.859375 C 201.226562 -55.734375 199.78125 -60.800781 194.710938 -60.800781 C 184.21875 -60.800781 174.082031 -39.085938 135.359375 -36.191406 C 110.386719 -34.746094 87.222656 -34.746094 64.421875 -36.554688 C 142.957031 -99.890625 183.132812 -145.128906 183.492188 -188.921875 C 184.21875 -229.820312 152.367188 -256.960938 110.386719 -256.960938 C 66.957031 -256.960938 37.277344 -226.921875 27.867188 -201.949219 C 24.25 -192.179688 32.574219 -186.75 38.726562 -194.351562 C 56.097656 -216.066406 74.554688 -224.753906 94.460938 -224.753906 C 120.519531 -224.753906 137.890625 -208.105469 137.890625 -181.683594 C 137.890625 -136.804688 86.5 -83.601562 20.265625 -20.265625 C 8.6875 -9.046875 13.390625 0 30.039062 0 Z M 170.101562 0 "/></g></g></g></svg>