<svg xmlns="http://www.w3.org/2000/svg" xmlns:xlink="http://www.w3.org/1999/xlink" width="1024" zoomAndPan="magnify" viewBox="0 0 768 767.999994" height="1024" preserveAspectRatio="xMidYMid meet" version="1.0"><defs><g/><clipPath id="ebf75670ad"><path d="M 61.296875 61.296875 L 706.703125 61.296875 L 706.703125 706.703125 L 61.296875 706.703125 Z M 61.296875 61.296875 " clip-rule="nonzero"/></clipPath><clipPath id="3511e0a882"><path d="M 384 61.296875 C 205.777344 61.296875 61.296875 205.777344 61.296875 384 C 61.296875 562.222656 205.777344 706.703125 384 706.703125 C 562.222656 706.703125 706.703125 562.222656 706.703125 384 C 706.703125 205.777344 562.222656 61.296875 384 61.296875 Z M 384 61.296875 " clip-rule="nonzero"/></clipPath></defs><rect x="-76.8" width="921.6" fill="#ffffff" y="-76.799999" height="921.599993" fill-opacity="1"/><rect x="-76.8" width="921.6" fill="#ffffff" y="-76.799999" height="921.599993" fill-opacity="1"/><g clip-path="url(#ebf75670ad)"><g clip-path="url(#3511e0a882)"><path fill="#c8c1bc" d="M 61.296875 61.296875 L 706.703125 61.296875 L 706.703125 706.703125 L 61.296875 706.703125 Z M 61.296875 61.296875 " fill-opacity="1" fill-rule="nonzero"/></g></g><g fill="#ffffff" fill-opacity="1"><g transform="translate(276.493943, 501.231255)"><g><path d="M 109.300781 3.621094 C 159.246094 3.621094 200.503906 -38 200.503906 -92.652344 C 200.503906 -138.976562 168.65625 -177.339844 124.863281 -177.339844 C 100.613281 -177.339844 77.449219 -164.671875 66.59375 -147.664062 C 67.316406 -203.035156 94.097656 -232.351562 126.308594 -232.351562 C 142.597656 -232.351562 152.730469 -229.820312 168.65625 -221.855469 C 175.894531 -217.875 182.769531 -225.113281 176.980469 -233.800781 C 169.378906 -245.382812 149.472656 -256.960938 121.96875 -256.960938 C 61.886719 -256.960938 17.371094 -193.265625 18.097656 -113.644531 C 18.457031 -40.535156 54.289062 3.621094 109.300781 3.621094 Z M 118.710938 -17.734375 C 84.328125 -17.734375 65.507812 -57.90625 65.507812 -96.269531 C 65.507812 -124.136719 78.175781 -149.109375 106.042969 -149.109375 C 138.976562 -149.109375 158.519531 -109.300781 158.519531 -70.574219 C 158.519531 -43.429688 147.300781 -17.734375 118.710938 -17.734375 Z M 118.710938 -17.734375 "/></g></g></g></svg>