<svg width="91" height="90" viewBox="0 0 91 90" fill="none" xmlns="http://www.w3.org/2000/svg">
<path d="M89.805 45C89.805 69.3012 70.1196 89 45.838 89C21.5565 89 1.87109 69.3012 1.87109 45C1.87109 20.6988 21.5565 1 45.838 1C70.1196 1 89.805 20.6988 89.805 45Z" fill="#7E7B79" stroke="#F7F3EE" stroke-width="2"/>
<path fill-rule="evenodd" clip-rule="evenodd" d="M27.2059 53.4617C29.535 51.1309 32.694 49.8214 35.9878 49.8214H55.6876C58.9814 49.8214 62.1404 51.1309 64.4695 53.4617C66.7986 55.7925 68.107 58.9537 68.107 62.25V67.1786C68.107 68.5987 66.9566 69.75 65.5375 69.75C64.1184 69.75 62.968 68.5987 62.968 67.1786V62.25C62.968 60.3177 62.2009 58.4646 60.8356 57.0982C59.4703 55.7319 57.6185 54.9643 55.6876 54.9643H35.9878C34.0569 54.9643 32.2051 55.7319 30.8398 57.0982C29.4745 58.4646 28.7074 60.3177 28.7074 62.25V67.1786C28.7074 68.5987 27.557 69.75 26.1379 69.75C24.7188 69.75 23.5684 68.5987 23.5684 67.1786V62.25C23.5684 58.9537 24.8768 55.7925 27.2059 53.4617Z" fill="white"/>
<path fill-rule="evenodd" clip-rule="evenodd" d="M45.8374 25.3929C41.8166 25.3929 38.557 28.6548 38.557 32.6786C38.557 36.7024 41.8166 39.9643 45.8374 39.9643C49.8582 39.9643 53.1178 36.7024 53.1178 32.6786C53.1178 28.6548 49.8582 25.3929 45.8374 25.3929ZM33.418 32.6786C33.418 25.8145 38.9783 20.25 45.8374 20.25C52.6965 20.25 58.2568 25.8145 58.2568 32.6786C58.2568 39.5427 52.6965 45.1071 45.8374 45.1071C38.9783 45.1071 33.418 39.5427 33.418 32.6786Z" fill="white"/>
</svg>
