<svg width="91" height="90" viewBox="0 0 91 90" fill="none" xmlns="http://www.w3.org/2000/svg">
<path d="M89.4671 45C89.4671 69.3012 69.7817 89 45.5001 89C21.2186 89 1.5332 69.3012 1.5332 45C1.5332 20.6988 21.2186 1 45.5001 1C69.7817 1 89.4671 20.6988 89.4671 45Z" fill="#7E7B79" stroke="#F7F3EE" stroke-width="2"/>
<path fill-rule="evenodd" clip-rule="evenodd" d="M45.5009 22.9286C33.3202 22.9286 23.4457 32.8103 23.4457 45C23.4457 57.1897 33.3202 67.0714 45.5009 67.0714C57.6817 67.0714 67.5561 57.1897 67.5561 45C67.5561 32.8103 57.6817 22.9286 45.5009 22.9286ZM18.3066 45C18.3066 29.97 30.4819 17.7857 45.5009 17.7857C60.5199 17.7857 72.6952 29.97 72.6952 45C72.6952 60.03 60.5199 72.2143 45.5009 72.2143C30.4819 72.2143 18.3066 60.03 18.3066 45Z" fill="white"/>
<path fill-rule="evenodd" clip-rule="evenodd" d="M37.6989 48.3745C36.8453 47.2481 35.2415 47.0221 34.11 47.8714C32.9747 48.7235 32.7446 50.3353 33.5961 51.4714L35.6517 49.9286C33.5961 51.4714 33.5967 51.4723 33.5973 51.4731L33.5987 51.4749L33.6016 51.4788L33.6086 51.488L33.6267 51.5117L33.6801 51.58C33.7231 51.6344 33.7813 51.7064 33.8543 51.7934C34 51.9673 34.206 52.2023 34.4699 52.4778C34.9956 53.0268 35.7635 53.7495 36.7568 54.4725C38.7335 55.9111 41.7155 57.4286 45.5016 57.4286C49.2877 57.4286 52.2697 55.9111 54.2465 54.4725C55.2398 53.7495 56.0077 53.0268 56.5334 52.4778C56.7973 52.2023 57.0032 51.9673 57.149 51.7934C57.222 51.7064 57.2801 51.6344 57.3232 51.58L57.3765 51.5117L57.3947 51.488L57.4016 51.4788L57.4046 51.4749L57.4059 51.4731C57.4065 51.4723 57.4071 51.4714 55.4171 49.9778L57.4072 51.4714C58.2586 50.3353 58.0285 48.7235 56.8932 47.8714C55.7617 47.0221 54.158 47.2481 53.3043 48.3745L53.2939 48.3878C53.2798 48.4056 53.2526 48.4395 53.2126 48.4872C53.1323 48.583 53.0016 48.733 52.823 48.9195C52.4638 49.2946 51.9234 49.804 51.2238 50.3132C49.8146 51.3389 47.8717 52.2857 45.5016 52.2857C43.1315 52.2857 41.1886 51.3389 39.7794 50.3132C39.0798 49.804 38.5395 49.2946 38.1802 48.9195C38.0017 48.733 37.8709 48.583 37.7907 48.4872C37.7506 48.4395 37.7234 48.4056 37.7093 48.3878L37.6989 48.3745Z" fill="white"/>
<path fill-rule="evenodd" clip-rule="evenodd" d="M35.543 37.6071C35.543 36.187 36.6934 35.0357 38.1125 35.0357H38.1382C39.5573 35.0357 40.7077 36.187 40.7077 37.6071C40.7077 39.0273 39.5573 40.1786 38.1382 40.1786H38.1125C36.6934 40.1786 35.543 39.0273 35.543 37.6071Z" fill="white"/>
<path fill-rule="evenodd" clip-rule="evenodd" d="M50.3184 37.6071C50.3184 36.187 51.4688 35.0357 52.8879 35.0357H52.9136C54.3327 35.0357 55.4831 36.187 55.4831 37.6071C55.4831 39.0273 54.3327 40.1786 52.9136 40.1786H52.8879C51.4688 40.1786 50.3184 39.0273 50.3184 37.6071Z" fill="white"/>
</svg>
