<svg width="91" height="90" viewBox="0 0 91 90" fill="none" xmlns="http://www.w3.org/2000/svg">
<path d="M89.1272 45C89.1272 69.3012 69.4419 89 45.1603 89C20.8787 89 1.19336 69.3012 1.19336 45C1.19336 20.6988 20.8787 1 45.1603 1C69.4419 1 89.1272 20.6988 89.1272 45Z" fill="#7E7B79" stroke="#F7F3EE" stroke-width="2"/>
<path fill-rule="evenodd" clip-rule="evenodd" d="M40.3525 19.3128C40.7649 18.3842 41.6851 17.7857 42.7006 17.7857C45.3413 17.7857 47.8739 18.8355 49.7412 20.7042C51.6085 22.5729 52.6575 25.1073 52.6575 27.75V35.0357H64.0126C65.0935 35.0258 66.1638 35.25 67.1501 35.6929C68.1413 36.1381 69.0239 36.7936 69.7367 37.6141C70.4496 38.4345 70.9758 39.4002 71.2787 40.4443C71.5816 41.4884 71.654 42.586 71.491 43.6609L68.0928 65.8391C68.0927 65.84 68.0926 65.8408 68.0924 65.8417C67.8209 67.6291 66.9134 69.2582 65.5368 70.4291C64.1638 71.5971 62.4163 72.2307 60.6146 72.2143H25.4632C23.4756 72.2143 21.5693 71.4241 20.1638 70.0176C18.7583 68.6111 17.9688 66.7034 17.9688 64.7143V47.4643C17.9688 45.4752 18.7583 43.5675 20.1638 42.161C21.5693 40.7545 23.4756 39.9643 25.4632 39.9643H31.1808L40.3525 19.3128ZM30.2811 45.1071H25.4632C24.8385 45.1071 24.2394 45.3555 23.7977 45.7975C23.356 46.2396 23.1078 46.8391 23.1078 47.4643V64.7143C23.1078 65.3394 23.356 65.939 23.7977 66.381C24.2394 66.8231 24.8385 67.0714 25.4632 67.0714H30.2811V45.1071ZM35.4202 67.0714H60.6564C61.2245 67.0779 61.7757 66.8788 62.2085 66.5106C62.6414 66.1424 62.9267 65.6301 63.0118 65.068L66.4101 42.8891C66.41 42.8895 66.4102 42.8887 66.4101 42.8891C66.4611 42.5517 66.4385 42.206 66.3434 41.8782C66.2482 41.5501 66.0828 41.2465 65.8588 40.9887C65.6347 40.7308 65.3573 40.5248 65.0458 40.3849C64.7343 40.245 64.3961 40.1745 64.0547 40.1784L64.0256 40.1787L50.088 40.1786C48.6689 40.1786 47.5184 39.0273 47.5184 37.6071V27.75C47.5184 26.4713 47.0109 25.2449 46.1073 24.3407C45.5815 23.8145 44.9466 23.4225 44.2558 23.1867L35.4202 43.0814V67.0714Z" fill="white"/>
</svg>
