<svg width="176" height="200" viewBox="0 0 176 200" fill="none" xmlns="http://www.w3.org/2000/svg">
<g id="&#240;&#159;&#166;&#134; illustration &#34;sitting man boy orange jacket&#34;">
<g id="Group">
<g id="Group_2">
<path id="Vector" fill-rule="evenodd" clip-rule="evenodd" d="M121.038 24.7702C123.789 21.5411 125.651 17.5838 125.34 13.1495C124.443 0.373125 106.658 3.18377 103.199 9.6322C99.739 16.0806 100.15 32.4376 104.621 33.5901C106.404 34.0498 110.203 32.9239 114.069 30.5936L111.642 47.7612H125.971L121.038 24.7702Z" fill="#FADEBC"/>
<path id="Vector_2" fill-rule="evenodd" clip-rule="evenodd" d="M122.14 27.6463C123.938 19.6456 129.061 14.1919 128.279 10.6159C127.757 8.23198 126.367 6.74948 124.108 6.16844C122.94 1.44209 119.172 -0.56821 112.804 0.137538C103.252 1.19616 97.4224 5.16284 99.94 13.8913C102.254 13.8913 105.048 13.0543 108.911 14.4883C110.137 14.9433 111.014 16.3542 111.541 18.7212H113.287C114.982 15.9123 116.652 14.8801 118.299 15.6246C119.946 16.3691 120.321 18.1775 119.422 21.0499L120.282 27.6463H122.14Z" fill="#6D391B"/>
</g>
<g id="Group_3">
<path id="Vector_3" fill-rule="evenodd" clip-rule="evenodd" d="M165.971 122.388H97.3145C92.0389 122.388 87.7622 126.665 87.7622 131.94V186.866C87.7622 192.141 92.0389 196.418 97.3145 196.418H165.971C171.247 196.418 175.523 192.141 175.523 186.866V131.94C175.523 126.665 171.247 122.388 165.971 122.388ZM156.419 139.104C157.738 139.104 158.807 140.174 158.807 141.493V177.313C158.807 178.632 157.738 179.701 156.419 179.701H106.867C105.548 179.701 104.479 178.632 104.479 177.313V141.493C104.479 140.174 105.548 139.104 106.867 139.104H156.419Z" fill="#C5CFD6"/>
<path id="Vector_4" fill-rule="evenodd" clip-rule="evenodd" d="M28.5627 193.433C40.3333 179.059 48.2976 168.403 52.4556 161.465C59.575 149.585 65.402 139.014 67.2408 134.976C71.6257 125.346 57.146 120.837 53.8689 125.329C48.9089 132.127 38.316 153.518 22.0904 189.503L28.5627 193.433Z" fill="#FFD4AD"/>
<path id="Vector_5" fill-rule="evenodd" clip-rule="evenodd" d="M52.6828 189.254L74.5887 134.111C79.2739 124.059 56.648 117.452 53.2047 122.13C45.3874 132.751 26.8074 174.647 24.4783 177.811L52.6828 189.254Z" fill="#2F3676"/>
<path id="Vector_6" fill-rule="evenodd" clip-rule="evenodd" d="M111.027 178.195C106.759 171.971 91.2383 151.029 82.7843 142.365C80.355 139.875 77.9845 137.485 75.7426 135.258C69.0786 128.639 55.8083 139.765 62.46 145.794C79.0253 160.809 103.195 181.079 105.214 182.886C108.045 185.419 113.708 182.107 111.027 178.195Z" fill="#FADEBC"/>
<path id="Vector_7" fill-rule="evenodd" clip-rule="evenodd" d="M110.028 175.383C111.498 176.594 112.454 177.582 112.897 178.349C113.435 179.281 114.066 180.731 114.788 182.699L85.6261 199.536C83.4219 197.468 83.0785 195.863 84.5959 194.72C86.1132 193.578 87.3654 192.614 88.3524 191.83L98.4177 177.962C98.6114 177.695 98.9847 177.636 99.2516 177.83C99.2562 177.833 99.2607 177.836 99.2651 177.84L101.357 179.45C103.275 179.283 104.707 178.926 105.652 178.381C106.42 177.937 107.301 177.015 108.296 175.614C108.677 175.076 109.423 174.95 109.961 175.332C109.984 175.348 110.006 175.365 110.028 175.383Z" fill="#E4E4E4"/>
<path id="Vector_8" fill-rule="evenodd" clip-rule="evenodd" d="M33.6251 191.285C34.293 193.068 34.627 194.402 34.627 195.287C34.627 196.364 34.4476 197.935 34.0889 200H0.416172C-0.458862 197.107 0.046257 195.545 1.93153 195.315C3.81681 195.084 5.38294 194.876 6.62993 194.69L22.2807 187.713C22.5818 187.578 22.9348 187.714 23.0691 188.015C23.0714 188.02 23.0736 188.025 23.0757 188.03L24.0817 190.471C25.827 191.285 27.2452 191.692 28.3364 191.692C29.2229 191.692 30.4473 191.334 32.0094 190.618C32.6088 190.343 33.3175 190.607 33.5923 191.206C33.6042 191.232 33.6151 191.258 33.6251 191.285Z" fill="#E4E4E4"/>
<path id="Vector_9" fill-rule="evenodd" clip-rule="evenodd" d="M82.4718 136.866C100.679 133.9 112.874 131.871 119.058 130.781C136.683 127.673 141.823 118.188 138.784 97.4938H106.309C102.012 98.7349 84.0548 106.41 52.4387 120.52C46.7503 123.344 47.8097 131.67 48.8494 134.413C48.8918 134.525 58.4813 150.957 77.6179 183.709L104.184 166.785L82.4219 138.86C81.8471 137.702 81.8638 137.038 82.4718 136.866Z" fill="#5C63AB"/>
</g>
<g id="Group_4">
<path id="Vector_10" fill-rule="evenodd" clip-rule="evenodd" d="M80.1312 89.6785L61.0875 103.663C55.9224 105.056 51.6072 106.791 48.1418 108.865C47.3232 109.611 46.3338 111.121 49.7287 110.86C53.1236 110.599 56.7063 110.477 57.1747 111.635C57.6432 112.793 55.5887 114.178 56.5356 115.74C57.1669 116.782 60.1493 114.17 65.4827 107.905L84.341 100.085L80.1312 89.6785ZM153.25 90.1612L140.774 90.2102C148.477 115.078 152.636 128.273 153.25 129.794C154.631 133.218 151.708 138.432 150.458 141.234C154.529 143.056 154.095 136.309 159.232 138.698C163.92 140.879 167.486 144.831 172.903 141.489C173.569 141.078 174.298 139.531 172.535 138.322C168.142 135.31 161.812 130.039 160.957 128.303C159.791 125.937 157.222 113.223 153.25 90.1612Z" fill="#FADEBC"/>
<path id="Vector_11" fill-rule="evenodd" clip-rule="evenodd" d="M117.794 37.8102L112.631 36.9247C93.4771 53.4713 85.6098 85.2591 62.1314 102.098L67.7825 109.103C108.513 104.06 118.609 65.2865 117.794 37.8102Z" fill="#423A35"/>
<path id="Vector_12" fill-rule="evenodd" clip-rule="evenodd" d="M140.299 102.687H94.6204C92.5331 102.687 92.9264 99.6727 93.2281 98.1518C96.7104 80.5993 110.304 61.6786 110.304 36.693L123.48 34.6269C134.378 52.1543 138.147 73.7341 140.299 102.687Z" fill="#DDE3E9"/>
<path id="Vector_13" fill-rule="evenodd" clip-rule="evenodd" d="M139.933 51.8555C141.847 51.3054 143.362 50.0225 144.479 48.0067C149.295 39.3171 147.556 34.5328 142.409 32.9602C137.263 31.3876 132.673 34.6269 124.473 34.6269C124.027 34.6269 123.619 34.6548 123.248 34.7108L119.123 34.9461C107.289 75.0539 104.025 101.813 109.332 115.224H145.284C147.414 120.191 149.453 124.37 151.399 127.761H161.196C162.118 97.9505 155.03 72.6486 139.933 51.8555Z" fill="#60544D"/>
<path id="Vector_14" fill-rule="evenodd" clip-rule="evenodd" d="M137.454 94.6255C136.324 104.086 134.486 110.952 131.941 115.224H145.283C142.798 109.43 140.189 102.564 137.454 94.6255Z" fill="black" fill-opacity="0.1"/>
</g>
</g>
</g>
</svg>
